<svg width="1200" height="630" viewBox="0 0 1200 630" fill="none" xmlns="http://www.w3.org/2000/svg">
  <rect width="1200" height="630" rx="36" fill="#08101D"/>
  <rect width="1200" height="630" rx="36" fill="url(#paint0_radial)"/>
  <circle cx="312" cy="232" r="124" fill="url(#paint1_radial)"/>
  <circle cx="901" cy="412" r="82" fill="url(#paint2_radial)"/>
  <path d="M124 456C261 330 411 282 574 312C737 342 885 306 1018 206" stroke="#7EF0C7" stroke-opacity="0.4" stroke-width="3"/>
  <path d="M124 492C280 396 423 361 554 387C685 413 848 388 1034 256" stroke="#00C6FF" stroke-opacity="0.4" stroke-width="3"/>
  <rect x="84" y="72" width="240" height="44" rx="22" fill="white" fill-opacity="0.08"/>
  <text x="118" y="101" fill="#FFD27A" font-family="Segoe UI, Arial, sans-serif" font-size="22" letter-spacing="5">BASE MINI APP</text>
  <text x="84" y="190" fill="#F5F7FF" font-family="Segoe UI, Arial, sans-serif" font-size="92" font-weight="700">链上留言板</text>
  <text x="90" y="260" fill="#B7C4DE" font-family="Segoe UI, Arial, sans-serif" font-size="34">钱包地址可写一条短留言，适合社区互动。</text>
  <defs>
    <radialGradient id="paint0_radial" cx="0" cy="0" r="1" gradientUnits="userSpaceOnUse" gradientTransform="translate(840 118) rotate(128.922) scale(558.19 785.211)">
      <stop stop-color="#112B47"/>
      <stop offset="1" stop-color="#08101D" stop-opacity="0"/>
    </radialGradient>
    <radialGradient id="paint1_radial" cx="0" cy="0" r="1" gradientUnits="userSpaceOnUse" gradientTransform="translate(286 205) rotate(47.49) scale(135.342)">
      <stop stop-color="#D9FFF2"/>
      <stop offset="0.466271" stop-color="#7EF0C7"/>
      <stop offset="1" stop-color="#00C6FF" stop-opacity="0"/>
    </radialGradient>
    <radialGradient id="paint2_radial" cx="0" cy="0" r="1" gradientUnits="userSpaceOnUse" gradientTransform="translate(878 391) rotate(48.1691) scale(90.1694)">
      <stop stop-color="#FFF5D6"/>
      <stop offset="0.489583" stop-color="#FFD27A"/>
      <stop offset="1" stop-color="#FFD27A" stop-opacity="0"/>
    </radialGradient>
  </defs>
</svg>
