<svg width="1200" height="630" viewBox="0 0 1200 630" fill="none" xmlns="http://www.w3.org/2000/svg">
  <rect width="1200" height="630" rx="40" fill="#06101C"/>
  <rect width="1200" height="630" rx="40" fill="url(#paint0_linear)"/>
  <circle cx="271" cy="205" r="140" fill="url(#paint1_radial)"/>
  <circle cx="943" cy="458" r="98" fill="url(#paint2_radial)"/>
  <path d="M108 424C246 312 383 278 520 322C657 366 809 341 986 216" stroke="#7EF0C7" stroke-opacity="0.45" stroke-width="4"/>
  <path d="M106 482C260 380 411 350 560 389C709 428 855 398 1045 272" stroke="#00C6FF" stroke-opacity="0.5" stroke-width="4"/>
  <rect x="84" y="76" width="246" height="48" rx="24" fill="white" fill-opacity="0.08"/>
  <text x="117" y="107" fill="#FFD27A" font-family="Segoe UI, Arial, sans-serif" font-size="22" letter-spacing="5">BASE MINI APP</text>
  <text x="84" y="208" fill="#F5F7FF" font-family="Segoe UI, Arial, sans-serif" font-size="92" font-weight="700">Chain Guestbook</text>
  <text x="90" y="278" fill="#B7C4DE" font-family="Segoe UI, Arial, sans-serif" font-size="34">Write one short message on Base for the whole community.</text>
  <text x="90" y="404" fill="#F5F7FF" font-family="Segoe UI, Arial, sans-serif" font-size="30">Connect wallet. Write one line. Leave the moment onchain.</text>
  <defs>
    <linearGradient id="paint0_linear" x1="145" y1="52" x2="1078" y2="630" gradientUnits="userSpaceOnUse">
      <stop stop-color="#112742"/>
      <stop offset="0.515625" stop-color="#091320"/>
      <stop offset="1" stop-color="#180B23"/>
    </linearGradient>
    <radialGradient id="paint1_radial" cx="0" cy="0" r="1" gradientUnits="userSpaceOnUse" gradientTransform="translate(246 177) rotate(47.49) scale(152.621)">
      <stop stop-color="#D9FFF2"/>
      <stop offset="0.466271" stop-color="#7EF0C7"/>
      <stop offset="1" stop-color="#00C6FF" stop-opacity="0"/>
    </radialGradient>
    <radialGradient id="paint2_radial" cx="0" cy="0" r="1" gradientUnits="userSpaceOnUse" gradientTransform="translate(915 432) rotate(48.1691) scale(108.327)">
      <stop stop-color="#FFF5D6"/>
      <stop offset="0.489583" stop-color="#FFD27A"/>
      <stop offset="1" stop-color="#FFD27A" stop-opacity="0"/>
    </radialGradient>
  </defs>
</svg>
